<svg width="24" height="24" viewBox="0 0 24 24" fill="none" xmlns="http://www.w3.org/2000/svg">
<g clip-path="url(#clip0_2309_466)">
<path d="M24 12C24 5.37258 18.6274 0 12 0C5.37258 0 0 5.37258 0 12C0 18.6274 5.37258 24 12 24C18.6274 24 24 18.6274 24 12Z" fill="#D1FCD8"/>
<path d="M12 16.5V15.375C12.4349 15.3373 12.8426 15.1474 13.1512 14.8387C13.4599 14.5301 13.6498 14.1224 13.6875 13.6875H14.8125C14.7761 14.4217 14.4681 15.1161 13.9484 15.6359C13.4286 16.1556 12.7342 16.4636 12 16.5Z" fill="#10C900"/>
<path d="M12 18.7497C10.6578 18.7481 9.37113 18.2142 8.42208 17.2651C7.47303 16.3161 6.93914 15.0294 6.9375 13.6872C6.96777 12.7005 7.25764 11.7391 7.77788 10.9L11.5236 4.93304C11.5777 4.85711 11.6491 4.79521 11.732 4.7525C11.8149 4.70978 11.9068 4.6875 12 4.6875C12.0932 4.6875 12.1851 4.70978 12.268 4.7525C12.3509 4.79521 12.4223 4.85711 12.4764 4.93304L16.2058 10.8708C16.7348 11.7176 17.0303 12.6893 17.0625 13.6872C17.0609 15.0294 16.527 16.3161 15.5779 17.2651C14.6289 18.2142 13.3422 18.7481 12 18.7497ZM12 6.28923L8.74763 11.4687C8.32856 12.1353 8.09227 12.9004 8.0625 13.6872C8.0625 14.7315 8.47734 15.733 9.21577 16.4715C9.95419 17.2099 10.9557 17.6247 12 17.6247C13.0443 17.6247 14.0458 17.2099 14.7842 16.4715C15.5227 15.733 15.9375 14.7315 15.9375 13.6872C15.9054 12.8894 15.6632 12.1142 15.2355 11.44L12 6.28923Z" fill="#10C900"/>
</g>
<defs>
<clipPath id="clip0_2309_466">
<rect width="24" height="24" fill="white"/>
</clipPath>
</defs>
</svg>
