<svg width="42" height="39" viewBox="0 0 42 39" fill="none" xmlns="http://www.w3.org/2000/svg">
<path fill-rule="evenodd" clip-rule="evenodd" d="M14.5279 5.34817C12.4647 7.9602 12.3944 11.6814 14.3576 14.3739L14.7651 14.9328C17.4992 18.6824 17.4014 23.8649 14.5279 27.5026C14.0404 28.1199 13.1586 28.2137 12.5585 27.7122C11.9584 27.2107 11.8672 26.3037 12.3548 25.6865C14.4181 23.0745 14.4883 19.3532 12.5251 16.6608L12.1176 16.1019C9.38354 12.3522 9.48134 7.16974 12.3548 3.53201C12.8424 2.91475 13.7241 2.82093 14.3242 3.32245C14.9243 3.82397 15.0155 4.73091 14.5279 5.34817Z" fill="#5BD566"/>
<path fill-rule="evenodd" clip-rule="evenodd" d="M22.0887 5.34817C20.0255 7.9602 19.9553 11.6814 21.9184 14.3739L22.3259 14.9328C25.06 18.6824 24.9622 23.8649 22.0887 27.5026C21.6012 28.1199 20.7194 28.2137 20.1194 27.7122C19.5193 27.2107 19.4281 26.3037 19.9156 25.6865C21.9789 23.0745 22.0491 19.3532 20.0859 16.6608L19.6784 16.1019C16.9444 12.3522 17.0422 7.16974 19.9156 3.53201C20.4032 2.91475 21.2849 2.82093 21.885 3.32245C22.4851 3.82397 22.5763 4.73091 22.0887 5.34817Z" fill="#5BD566"/>
<path fill-rule="evenodd" clip-rule="evenodd" d="M29.6469 5.34817C27.5836 7.9602 27.5134 11.6814 29.4766 14.3739L29.8841 14.9328C32.6182 18.6824 32.5204 23.8649 29.6469 27.5026C29.1593 28.1199 28.2776 28.2137 27.6775 27.7122C27.0774 27.2107 26.9862 26.3037 27.4738 25.6865C29.537 23.0745 29.6073 19.3532 27.6441 16.6608L27.2366 16.1019C24.5025 12.3522 24.6003 7.16974 27.4738 3.53201C27.9614 2.91475 28.8431 2.82093 29.4432 3.32245C30.0433 3.82397 30.1345 4.73091 29.6469 5.34817Z" fill="#5BD566"/>
<path d="M3.4186 35.4553H38.5312L42 39H0L3.4186 35.4553Z" fill="#5BD566"/>
<path d="M6.6883 31.9114H35.2683L38.0918 34.7472H3.90571L6.6883 31.9114Z" fill="#5BD566"/>
<path d="M37.5909 8.18182L37.6591 6.30682L36.0739 7.3125L35.6648 6.59659L37.3352 5.72727L35.6648 4.85795L36.0739 4.14205L37.6591 5.14773L37.5909 3.27273H38.4091L38.3409 5.14773L39.9261 4.14205L40.3352 4.85795L38.6648 5.72727L40.3352 6.59659L39.9261 7.3125L38.3409 6.30682L38.4091 8.18182H37.5909Z" fill="#5BD566"/>
</svg>
