<svg width="422" height="665" viewBox="0 0 422 665" fill="none" xmlns="http://www.w3.org/2000/svg">
<line x1="138" y1="584" x2="138" y2="645" stroke="#505050" stroke-width="40" stroke-linecap="round"/>
<line x1="280" y1="584" x2="280" y2="645" stroke="#505050" stroke-width="40" stroke-linecap="round"/>
<path d="M62.5 524.5H359.5V535.5C359.5 549.863 359.494 560.177 358.822 568.268C358.158 576.269 356.881 581.422 354.715 585.591C350.683 593.354 344.354 599.683 336.591 603.715C332.422 605.881 327.269 607.158 319.268 607.822C311.177 608.494 300.863 608.5 286.5 608.5H135.5C121.137 608.5 110.823 608.494 102.732 607.822C94.7312 607.158 89.5781 605.881 85.4086 603.715C77.6463 599.683 71.3171 593.354 67.2849 585.591C65.119 581.422 63.8424 576.269 63.1779 568.268C62.506 560.177 62.5 549.863 62.5 535.5V524.5Z" fill="#A9B7C8" stroke="#505050" stroke-width="15"/>
<rect x="10" y="10" width="402" height="558" rx="40" fill="url(#paint0_linear_1244_1598)" stroke="#626262" stroke-width="20"/>
<g filter="url(#filter0_d_1244_1598)">
<rect x="134" y="363" width="154" height="154" rx="77" fill="url(#paint1_linear_1244_1598)" shape-rendering="crispEdges"/>
<rect x="142.5" y="371.5" width="137" height="137" rx="68.5" stroke="#626262" stroke-width="17" shape-rendering="crispEdges"/>
</g>
<line x1="180.021" y1="411" x2="211" y2="441.979" stroke="#626262" stroke-width="17" stroke-linecap="round"/>
<path d="M138.277 268L148.295 248.572C156.513 232.632 153.941 213.262 141.846 200.02V200.02C128.92 185.869 126.96 164.856 137.046 148.558L164 105" stroke="#F99456" stroke-width="15" stroke-linecap="round"/>
<path d="M206.861 268L216.723 248.429C224.743 232.513 222.214 213.312 210.345 200.016V200.016C197.659 185.803 195.729 164.977 205.587 148.675L232 105" stroke="#F99456" stroke-width="15" stroke-linecap="round"/>
<path d="M274.861 268L284.723 248.429C292.743 232.513 290.214 213.312 278.345 200.016V200.016C265.659 185.803 263.729 164.977 273.587 148.675L300 105" stroke="#F99456" stroke-width="15" stroke-linecap="round"/>
<g filter="url(#filter1_d_1244_1598)">
<path d="M200.617 111.537C205.359 104.561 215.641 104.561 220.383 111.537L251.869 157.85C274.449 191.062 250.66 236 210.5 236V236C170.34 236 146.551 191.062 169.131 157.85L200.617 111.537Z" fill="#8FABE1"/>
<path d="M214.181 115.753L245.667 162.067C264.861 190.299 244.639 228.5 210.5 228.5C176.361 228.5 156.139 190.299 175.333 162.067L206.819 115.753C208.586 113.156 212.414 113.156 214.181 115.753Z" stroke="#6C6C6C" stroke-opacity="0.5" stroke-width="15"/>
</g>
<defs>
<filter id="filter0_d_1244_1598" x="104" y="337" width="214" height="214" filterUnits="userSpaceOnUse" color-interpolation-filters="sRGB">
<feFlood flood-opacity="0" result="BackgroundImageFix"/>
<feColorMatrix in="SourceAlpha" type="matrix" values="0 0 0 0 0 0 0 0 0 0 0 0 0 0 0 0 0 0 127 0" result="hardAlpha"/>
<feOffset dy="4"/>
<feGaussianBlur stdDeviation="15"/>
<feComposite in2="hardAlpha" operator="out"/>
<feColorMatrix type="matrix" values="0 0 0 0 0 0 0 0 0 0 0 0 0 0 0 0 0 0 0.15 0"/>
<feBlend mode="normal" in2="BackgroundImageFix" result="effect1_dropShadow_1244_1598"/>
<feBlend mode="normal" in="SourceGraphic" in2="effect1_dropShadow_1244_1598" result="shape"/>
</filter>
<filter id="filter1_d_1244_1598" x="140.391" y="90.3047" width="140.219" height="169.695" filterUnits="userSpaceOnUse" color-interpolation-filters="sRGB">
<feFlood flood-opacity="0" result="BackgroundImageFix"/>
<feColorMatrix in="SourceAlpha" type="matrix" values="0 0 0 0 0 0 0 0 0 0 0 0 0 0 0 0 0 0 127 0" result="hardAlpha"/>
<feOffset dy="4"/>
<feGaussianBlur stdDeviation="10"/>
<feComposite in2="hardAlpha" operator="out"/>
<feColorMatrix type="matrix" values="0 0 0 0 0.560784 0 0 0 0 0.670588 0 0 0 0 0.882353 0 0 0 0.29 0"/>
<feBlend mode="normal" in2="BackgroundImageFix" result="effect1_dropShadow_1244_1598"/>
<feBlend mode="normal" in="SourceGraphic" in2="effect1_dropShadow_1244_1598" result="shape"/>
</filter>
<linearGradient id="paint0_linear_1244_1598" x1="398" y1="14.5" x2="14" y2="578" gradientUnits="userSpaceOnUse">
<stop stop-color="#D8E3EF"/>
<stop offset="1" stop-color="#CCD8E5"/>
</linearGradient>
<linearGradient id="paint1_linear_1244_1598" x1="248" y1="379" x2="173" y2="500" gradientUnits="userSpaceOnUse">
<stop stop-color="white" stop-opacity="0.38"/>
<stop offset="1" stop-color="white" stop-opacity="0.52"/>
</linearGradient>
</defs>
</svg>
