<svg width="28" height="28" viewBox="0 0 28 28" fill="none" xmlns="http://www.w3.org/2000/svg">
<g clip-path="url(#clip0_1529_514)">
<path d="M8.18265 26.4444H5.84931C5.71845 26.4421 5.5903 26.4068 5.47673 26.3417C5.36316 26.2767 5.26783 26.184 5.19959 26.0724C5.13134 25.9607 5.09238 25.8336 5.08631 25.7029C5.08024 25.5721 5.10726 25.442 5.16487 25.3244L9.76153 16.3333H4.66709C4.52692 16.3345 4.38904 16.2978 4.26803 16.227C4.14703 16.1563 4.04739 16.0541 3.97965 15.9314C3.91191 15.8087 3.8786 15.67 3.88324 15.5299C3.88787 15.3898 3.93028 15.2535 4.00598 15.1356L12.3126 1.91333C12.3807 1.80705 12.4737 1.71894 12.5834 1.65661C12.6932 1.59428 12.8165 1.5596 12.9426 1.55556H23.3882C23.5435 1.54821 23.6975 1.58758 23.8302 1.66858C23.9629 1.74958 24.0683 1.8685 24.1327 2.00999C24.1972 2.15147 24.2178 2.30903 24.1918 2.46233C24.1659 2.61563 24.0945 2.75763 23.9871 2.87L16.9404 10.8889H21.1249C21.273 10.892 21.4172 10.9374 21.5404 11.0197C21.6636 11.102 21.7608 11.2178 21.8205 11.3534C21.8801 11.489 21.8998 11.6389 21.8771 11.7853C21.8545 11.9318 21.7905 12.0687 21.6926 12.18L8.7582 26.18C8.68619 26.262 8.59772 26.3279 8.49856 26.3735C8.3994 26.419 8.29177 26.4432 8.18265 26.4444ZM7.14042 24.8889H7.8482L19.336 12.4444H15.2371C15.0818 12.4518 14.9278 12.4124 14.7951 12.3314C14.6624 12.2504 14.557 12.1315 14.4926 11.99C14.4281 11.8485 14.4075 11.691 14.4335 11.5377C14.4594 11.3844 14.5307 11.2424 14.6382 11.13L21.6849 3.11111H13.3704L6.04376 14.7778H11.0449C11.1757 14.7801 11.3039 14.8155 11.4174 14.8805C11.531 14.9455 11.6263 15.0382 11.6946 15.1499C11.7628 15.2615 11.8018 15.3886 11.8079 15.5194C11.8139 15.6501 11.7869 15.7803 11.7293 15.8978L7.14042 24.8889Z" fill="url(#paint0_linear_1529_514)"/>
<path d="M26.8611 21.9722H23.8056V18.9167C23.8056 18.6736 23.709 18.4404 23.5371 18.2685C23.3652 18.0966 23.132 18 22.8889 18C22.6458 18 22.4126 18.0966 22.2407 18.2685C22.0688 18.4404 21.9722 18.6736 21.9722 18.9167V21.9722H18.9167C18.6736 21.9722 18.4404 22.0688 18.2685 22.2407C18.0966 22.4126 18 22.6458 18 22.8889C18 23.132 18.0966 23.3652 18.2685 23.5371C18.4404 23.709 18.6736 23.8056 18.9167 23.8056H21.9722V26.8611C21.9722 27.1042 22.0688 27.3374 22.2407 27.5093C22.4126 27.6812 22.6458 27.7778 22.8889 27.7778C23.132 27.7778 23.3652 27.6812 23.5371 27.5093C23.709 27.3374 23.8056 27.1042 23.8056 26.8611V23.8056H26.8611C27.1042 23.8056 27.3374 23.709 27.5093 23.5371C27.6812 23.3652 27.7778 23.132 27.7778 22.8889C27.7778 22.6458 27.6812 22.4126 27.5093 22.2407C27.3374 22.0688 27.1042 21.9722 26.8611 21.9722Z" fill="#CE8F02"/>
</g>
<defs>
<linearGradient id="paint0_linear_1529_514" x1="14.0428" y1="1.55469" x2="14.0428" y2="26.4444" gradientUnits="userSpaceOnUse">
<stop stop-color="#C56002"/>
<stop offset="0.9999" stop-color="#D9D001"/>
<stop offset="1" stop-color="#C56002" stop-opacity="0"/>
</linearGradient>
<clipPath id="clip0_1529_514">
<rect width="28" height="28" fill="white"/>
</clipPath>
</defs>
</svg>
