<svg width="20" height="20" viewBox="0 0 20 20" fill="none" xmlns="http://www.w3.org/2000/svg">
<path d="M7.25743 18.7002C7.12953 18.6462 7.02324 18.5512 6.95534 18.4301C6.88744 18.309 6.86179 18.1688 6.88243 18.0315L8.01993 10.6252H5.00118C4.90548 10.6278 4.81047 10.6084 4.72347 10.5684C4.63647 10.5284 4.55982 10.469 4.49942 10.3947C4.43903 10.3204 4.39651 10.2333 4.37514 10.1399C4.35377 10.0466 4.35413 9.94964 4.37618 9.85647L6.25118 1.73147C6.28418 1.59164 6.36434 1.46745 6.47817 1.37979C6.59201 1.29214 6.73256 1.24638 6.87618 1.25022H13.1262C13.2196 1.24991 13.3118 1.27051 13.3962 1.31053C13.4805 1.35055 13.5549 1.40896 13.6137 1.48147C13.6733 1.55481 13.7156 1.64071 13.7372 1.73273C13.7589 1.82475 13.7594 1.92048 13.7387 2.01272L12.6574 6.87522H15.6262C15.7433 6.87499 15.8582 6.90768 15.9576 6.96956C16.0571 7.03145 16.1371 7.12003 16.1887 7.22522C16.2335 7.32619 16.2507 7.43721 16.2386 7.547C16.2266 7.65679 16.1856 7.76141 16.1199 7.85022L7.99493 18.4752C7.94002 18.5566 7.8667 18.6239 7.78092 18.6717C7.69513 18.7195 7.5993 18.7464 7.50118 18.7502C7.41757 18.7485 7.33497 18.7316 7.25743 18.7002ZM11.0949 8.12522L12.3449 2.50022H7.37618L5.78868 9.37522H9.48243L8.48868 15.8002L14.3762 8.12522H11.0949Z" fill="white"/>
</svg>
