<svg width="146" height="33" viewBox="0 0 146 33" fill="none" xmlns="http://www.w3.org/2000/svg">
<rect x="4.32422" y="14.5977" width="5.72384" height="5.72384" rx="2.86192" fill="#5BD566"/>
<path d="M1.84604 13.4709C1.3491 7.50756 6.38399 2.5552 12.3383 3.15063V3.15063L11.8312 3.91126C9.96131 6.71612 9.31749 10.1628 10.0488 13.4535V13.4535V13.4535C7.71782 12.1216 4.77114 12.6165 3.00328 14.6369L2.03539 15.7431L1.84604 13.4709Z" fill="#DFDFDF"/>
<path d="M12.529 21.449C13.0259 27.4124 7.99101 32.3647 2.0367 31.7693V31.7693L2.54378 31.0087C4.41369 28.2038 5.05751 24.7571 4.32623 21.4664V21.4664V21.4664C6.65718 22.7984 9.60386 22.3034 11.3717 20.283L12.3396 19.1768L12.529 21.449Z" fill="#DFDFDF"/>
<path d="M37.248 13.6142C37.248 15.6459 35.601 17.2929 33.5693 17.2929C31.5376 17.2929 29.8906 15.6459 29.8906 13.6142C29.8906 11.5825 31.5376 9.93555 33.5693 9.93555C35.601 9.93555 37.248 11.5825 37.248 13.6142Z" stroke="#DFDFDF" stroke-width="3"/>
<path fill-rule="evenodd" clip-rule="evenodd" d="M24.2753 13.6142C24.2753 14.8175 23.2999 15.7929 22.0966 15.7929C20.8934 15.7929 19.918 14.8175 19.918 13.6142C19.918 12.411 20.8934 11.4355 22.0966 11.4355C23.2999 11.4355 24.2753 12.411 24.2753 13.6142ZM27.2753 13.6142C27.2753 16.4743 24.9567 18.7929 22.0966 18.7929C21.3601 18.7929 20.6595 18.6391 20.0252 18.362V23.9716C20.0252 25.6877 18.634 27.0788 16.918 27.0788V13.6143C16.918 13.6142 16.918 13.6142 16.918 13.6142C16.918 10.7541 19.2365 8.43555 22.0966 8.43555C24.9567 8.43555 27.2753 10.7541 27.2753 13.6142Z" fill="#DFDFDF"/>
<path fill-rule="evenodd" clip-rule="evenodd" d="M84.248 13.4704C84.248 13.4704 84.248 13.4705 84.248 13.4705C84.248 16.3306 81.9294 18.6492 79.0693 18.6492C76.2092 18.6492 73.8906 16.3306 73.8906 13.4705C73.8906 10.6104 76.2092 8.29183 79.0693 8.29183C79.8058 8.29183 80.5064 8.44559 81.1408 8.72274V3.11306C81.1408 1.397 82.5319 0.00585938 84.248 0.00585938V13.4704ZM76.8906 13.4705C76.8906 12.2673 77.866 11.2918 79.0693 11.2918C80.2725 11.2918 81.248 12.2673 81.248 13.4705C81.248 14.6738 80.2725 15.6492 79.0693 15.6492C77.866 15.6492 76.8906 14.6738 76.8906 13.4705Z" fill="#DFDFDF"/>
<path d="M39.5294 8.61667C39.4583 8.30379 39.6962 8.00586 40.017 8.00586H42.3906L43.8906 15.0059L45.3906 8.00586H48.3906L49.8906 15.0059L51.3059 8.40109C51.3553 8.17056 51.5591 8.00586 51.7948 8.00586H54.3906L52.4213 16.6707C52.1109 18.0366 50.8966 19.0059 49.4959 19.0059H48.3906L46.8906 13.0059L45.9587 16.7335C45.6248 18.069 44.4249 19.0059 43.0483 19.0059H41.8906L39.5294 8.61667Z" fill="#DFDFDF"/>
<path d="M90.598 8.65746C90.4953 8.33499 90.736 8.00586 91.0744 8.00586H93.3906L95.3906 15.0059L97.3906 8.00586L100.391 8.00586L96.8906 19.0059H93.8906L90.598 8.65746Z" fill="#DFDFDF"/>
<path fill-rule="evenodd" clip-rule="evenodd" d="M63.7199 14.5059H58.0613C58.4732 15.6711 59.5844 16.5059 60.8906 16.5059C61.6239 16.5059 62.2957 16.2428 62.8168 15.8059H65.8881C65.0173 17.6948 63.1071 19.0059 60.8906 19.0059C57.8531 19.0059 55.3906 16.5434 55.3906 13.5059C55.3906 10.4683 57.8531 8.00586 60.8906 8.00586C63.9282 8.00586 66.3906 10.4683 66.3906 13.5059C66.3906 13.8474 66.3595 14.1816 66.2999 14.5059L63.7199 14.5059ZM60.8906 10.5059C59.5844 10.5059 58.4732 11.3407 58.0613 12.5059H63.7199C63.3081 11.3407 62.1968 10.5059 60.8906 10.5059Z" fill="#DFDFDF"/>
<path fill-rule="evenodd" clip-rule="evenodd" d="M109.63 14.5059H103.972C104.383 15.6711 105.495 16.5059 106.801 16.5059C107.534 16.5059 108.206 16.2428 108.727 15.8059H111.798C110.928 17.6948 109.017 19.0059 106.801 19.0059C103.763 19.0059 101.301 16.5434 101.301 13.5059C101.301 10.4683 103.763 8.00586 106.801 8.00586C109.838 8.00586 112.301 10.4683 112.301 13.5059C112.301 13.8474 112.27 14.1816 112.21 14.5059L109.63 14.5059ZM106.801 10.5059C105.495 10.5059 104.383 11.3407 103.972 12.5059H109.63C109.218 11.3407 108.107 10.5059 106.801 10.5059Z" fill="#DFDFDF"/>
<path d="M70.3906 7.00586H67.3906V19.0059C69.0475 19.0059 70.3906 17.6627 70.3906 16.0059V11.0059C70.3906 10.1222 71.107 9.40586 71.9906 9.40586H73.0689V7.00586L71.8625 7.17166C71.2605 7.27369 70.7439 7.59748 70.3906 8.05069V7.00586Z" fill="#DFDFDF"/>
<path d="M116.516 7.05664H113.516V19.0566C115.172 19.0566 116.516 17.7135 116.516 16.0566V11.0566C116.516 10.173 117.232 9.45664 118.116 9.45664H119.194V7.05664L117.988 7.22244C117.386 7.32447 116.869 7.64826 116.516 8.10147V7.05664Z" fill="#DFDFDF"/>
<path d="M142.891 7.00586H139.891V19.0059C141.547 19.0059 142.891 17.6627 142.891 16.0059V11.0059C142.891 10.1222 143.607 9.40586 144.491 9.40586H145.569V7.00586L144.363 7.17166C143.761 7.27369 143.244 7.59748 142.891 8.05069V7.00586Z" fill="#DFDFDF"/>
<path fill-rule="evenodd" clip-rule="evenodd" d="M136.22 14.5059H130.561C130.973 15.6711 132.084 16.5059 133.391 16.5059C134.124 16.5059 134.796 16.2428 135.317 15.8059H138.388C137.517 17.6948 135.607 19.0059 133.391 19.0059C130.353 19.0059 127.891 16.5434 127.891 13.5059C127.891 10.4683 130.353 8.00586 133.391 8.00586C136.428 8.00586 138.891 10.4683 138.891 13.5059C138.891 13.8474 138.859 14.1816 138.8 14.5059L136.22 14.5059ZM133.391 10.5059C132.084 10.5059 130.973 11.3407 130.561 12.5059H136.22C135.808 11.3407 134.697 10.5059 133.391 10.5059Z" fill="#DFDFDF"/>
<path d="M85.8906 8.00586H88.8906V19.0059H85.8906V8.00586Z" fill="#DFDFDF"/>
<path d="M124.891 4.00586H121.891V7.00586H120.391V9.50586H121.891V18.0059H124.891V9.50586H125.391C126.495 9.50586 127.391 8.61043 127.391 7.50586V7.00586H124.891V4.00586Z" fill="#DFDFDF"/>
<path d="M85.8906 4.00586V4.00586C87.5475 4.00586 88.8906 5.34901 88.8906 7.00586V7.00586H85.8906V4.00586Z" fill="#5BD566"/>
<path d="M27.8217 24.6424C27.7895 24.3185 27.6465 24.061 27.3928 23.8697C27.139 23.6784 26.8198 23.5827 26.4354 23.5827C26.1645 23.5827 25.9259 23.6291 25.7195 23.7219C25.5149 23.8147 25.3539 23.9435 25.2365 24.1083C25.121 24.2712 25.0632 24.4568 25.0632 24.6651C25.0632 24.8185 25.0964 24.953 25.1626 25.0685C25.2289 25.1841 25.3179 25.2835 25.4297 25.3668C25.5433 25.4483 25.6683 25.5183 25.8047 25.5771C25.9429 25.6358 26.0821 25.685 26.2223 25.7248L26.8359 25.9009C27.0215 25.9521 27.2071 26.0174 27.3928 26.0969C27.5784 26.1765 27.7479 26.2769 27.9013 26.3981C28.0566 26.5174 28.1806 26.6642 28.2734 26.8384C28.3681 27.0108 28.4155 27.2182 28.4155 27.4606C28.4155 27.7712 28.335 28.0505 28.174 28.2987C28.013 28.5468 27.782 28.7437 27.4808 28.8896C27.1797 29.0335 26.8189 29.1055 26.3984 29.1055C26.0026 29.1055 25.6589 29.0401 25.3672 28.9094C25.0755 28.7769 24.8464 28.5941 24.6797 28.3612C24.513 28.1282 24.4193 27.8583 24.3984 27.5515H24.9439C24.9628 27.7807 25.0386 27.9748 25.1712 28.1339C25.3037 28.293 25.4761 28.4142 25.6882 28.4975C25.9003 28.579 26.1371 28.6197 26.3984 28.6197C26.6882 28.6197 26.9458 28.5714 27.1712 28.4748C27.3984 28.3763 27.5765 28.2399 27.7053 28.0657C27.8359 27.8896 27.9013 27.685 27.9013 27.4521C27.9013 27.2551 27.8501 27.0903 27.7479 26.9577C27.6456 26.8233 27.5026 26.7106 27.3189 26.6197C27.1371 26.5288 26.9259 26.4483 26.6854 26.3782L25.9893 26.1737C25.5329 26.0373 25.1787 25.8488 24.9268 25.6083C24.675 25.3678 24.549 25.061 24.549 24.6879C24.549 24.3754 24.6323 24.1007 24.799 23.864C24.9676 23.6254 25.1948 23.4397 25.4808 23.3072C25.7687 23.1727 26.0916 23.1055 26.4496 23.1055C26.8113 23.1055 27.1314 23.1718 27.4098 23.3043C27.6882 23.4369 27.9089 23.6197 28.0717 23.8526C28.2365 24.0837 28.3246 24.3469 28.3359 24.6424H27.8217Z" fill="#5BD566"/>
<path d="M34.4638 26.0969C34.4638 26.703 34.3558 27.2305 34.1399 27.6793C33.924 28.1263 33.6267 28.4729 33.2479 28.7191C32.871 28.9634 32.4373 29.0856 31.9467 29.0856C31.4562 29.0856 31.0215 28.9634 30.6428 28.7191C30.2659 28.4729 29.9695 28.1263 29.7536 27.6793C29.5395 27.2305 29.4325 26.703 29.4325 26.0969C29.4325 25.4909 29.5395 24.9644 29.7536 24.5174C29.9695 24.0685 30.2668 23.7219 30.6456 23.4776C31.0244 23.2314 31.4581 23.1083 31.9467 23.1083C32.4373 23.1083 32.871 23.2314 33.2479 23.4776C33.6267 23.7219 33.924 24.0685 34.1399 24.5174C34.3558 24.9644 34.4638 25.4909 34.4638 26.0969ZM33.9467 26.0969C33.9467 25.5761 33.8596 25.1301 33.6854 24.7589C33.5111 24.3858 33.2734 24.1007 32.9723 23.9038C32.6712 23.7068 32.3293 23.6083 31.9467 23.6083C31.5661 23.6083 31.2251 23.7068 30.924 23.9038C30.6229 24.1007 30.3842 24.3848 30.2081 24.756C30.0339 25.1272 29.9467 25.5742 29.9467 26.0969C29.9467 26.6178 30.0339 27.0638 30.2081 27.435C30.3823 27.8062 30.62 28.0913 30.9212 28.2901C31.2223 28.4871 31.5642 28.5856 31.9467 28.5856C32.3293 28.5856 32.6712 28.4871 32.9723 28.2901C33.2753 28.0932 33.514 27.8091 33.6882 27.4379C33.8625 27.0647 33.9486 26.6178 33.9467 26.0969Z" fill="#5BD566"/>
<path d="M35.7486 29.006V23.1879H36.2798V28.5288H39.0526V29.006H35.7486Z" fill="#5BD566"/>
<path d="M40.6243 29.006H40.0675L42.1839 23.1879H42.7521L44.8686 29.006H44.3118L42.4879 23.8782H42.4482L40.6243 29.006ZM41.0249 26.7759H43.9112V27.2532H41.0249V26.7759Z" fill="#5BD566"/>
<path d="M53.1626 29.006V23.1879H56.5376V23.6651H53.6939V25.8555H56.3587V26.3327H53.6939V28.5288H56.5945V29.006H53.1626Z" fill="#5BD566"/>
<path d="M57.9126 29.006V23.1879H58.4439V28.5288H61.2166V29.006H57.9126Z" fill="#5BD566"/>
<path d="M62.4126 29.006V23.1879H65.7876V23.6651H62.9439V25.8555H65.6087V26.3327H62.9439V28.5288H65.8445V29.006H62.4126Z" fill="#5BD566"/>
<path d="M71.7195 25.006H71.1854C71.1456 24.8072 71.0736 24.6235 70.9695 24.4549C70.8672 24.2844 70.7384 24.1358 70.5831 24.0089C70.4278 23.882 70.2517 23.7835 70.0547 23.7134C69.8577 23.6433 69.6446 23.6083 69.4155 23.6083C69.0481 23.6083 68.7128 23.704 68.4098 23.8952C68.1087 24.0865 67.8672 24.3678 67.6854 24.739C67.5054 25.1083 67.4155 25.561 67.4155 26.0969C67.4155 26.6367 67.5054 27.0913 67.6854 27.4606C67.8672 27.8299 68.1087 28.1102 68.4098 28.3015C68.7128 28.4909 69.0481 28.5856 69.4155 28.5856C69.6446 28.5856 69.8577 28.5505 70.0547 28.4805C70.2517 28.4104 70.4278 28.3129 70.5831 28.1879C70.7384 28.061 70.8672 27.9123 70.9695 27.7418C71.0736 27.5714 71.1456 27.3867 71.1854 27.1879H71.7195C71.6721 27.4549 71.5831 27.704 71.4524 27.935C71.3236 28.1642 71.1589 28.3649 70.9581 28.5373C70.7592 28.7096 70.5301 28.8441 70.2706 28.9407C70.0111 29.0373 69.7261 29.0856 69.4155 29.0856C68.9268 29.0856 68.4931 28.9634 68.1143 28.7191C67.7356 28.4729 67.4382 28.1263 67.2223 27.6793C67.0083 27.2324 66.9013 26.7049 66.9013 26.0969C66.9013 25.489 67.0083 24.9615 67.2223 24.5146C67.4382 24.0676 67.7356 23.7219 68.1143 23.4776C68.4931 23.2314 68.9268 23.1083 69.4155 23.1083C69.7261 23.1083 70.0111 23.1566 70.2706 23.2532C70.5301 23.3479 70.7592 23.4824 70.9581 23.6566C71.1589 23.829 71.3236 24.0297 71.4524 24.2589C71.5831 24.488 71.6721 24.7371 71.7195 25.006Z" fill="#5BD566"/>
<path d="M72.6151 23.6651V23.1879H76.8338V23.6651H74.9901V29.006H74.4588V23.6651H72.6151Z" fill="#5BD566"/>
<path d="M78.0298 29.006V23.1879H79.9077C80.3205 23.1879 80.6652 23.2627 80.9418 23.4123C81.2202 23.56 81.4295 23.7655 81.5696 24.0288C81.7116 24.2901 81.7827 24.5903 81.7827 24.9293C81.7827 25.2683 81.7116 25.5676 81.5696 25.8271C81.4295 26.0865 81.2211 26.2892 80.9446 26.435C80.3901 26.7274 80.7992 26.506 80.3901 26.506L79.902 26.168C80.205 26.168 80.4569 26.1178 80.6577 26.0174C80.8603 25.917 81.0109 25.774 81.1094 25.5884C81.2098 25.4028 81.2599 25.1831 81.2599 24.9293C81.2599 24.6755 81.2098 24.454 81.1094 24.2646C81.009 24.0733 80.8575 23.9255 80.6548 23.8214C80.4541 23.7172 80.2003 23.6651 79.8935 23.6651H78.5611V29.006H78.0298ZM80.5952 26.381L82.027 29.006H81.4134L79.902 26.168L80.5952 26.381Z" fill="#5BD566"/>
<path d="M83.608 23.1879V29.006H83.0767V23.1879H83.608Z" fill="#5BD566"/>
<path d="M89.7116 25.006H89.1776C89.1378 24.8072 89.0658 24.6235 88.9616 24.4549C88.8594 24.2844 88.7306 24.1358 88.5753 24.0089C88.42 23.882 88.2438 23.7835 88.0469 23.7134C87.8499 23.6433 87.6368 23.6083 87.4077 23.6083C87.0402 23.6083 86.705 23.704 86.402 23.8952C86.1009 24.0865 85.8594 24.3678 85.6776 24.739C85.4976 25.1083 85.4077 25.561 85.4077 26.0969C85.4077 26.6367 85.4976 27.0913 85.6776 27.4606C85.8594 27.8299 86.1009 28.1102 86.402 28.3015C86.705 28.4909 87.0402 28.5856 87.4077 28.5856C87.6368 28.5856 87.8499 28.5505 88.0469 28.4805C88.2438 28.4104 88.42 28.3129 88.5753 28.1879C88.7306 28.061 88.8594 27.9123 88.9616 27.7418C89.0658 27.5714 89.1378 27.3867 89.1776 27.1879H89.7116C89.6643 27.4549 89.5753 27.704 89.4446 27.935C89.3158 28.1642 89.151 28.3649 88.9503 28.5373C88.7514 28.7096 88.5223 28.8441 88.2628 28.9407C88.0033 29.0373 87.7183 29.0856 87.4077 29.0856C86.919 29.0856 86.4853 28.9634 86.1065 28.7191C85.7277 28.4729 85.4304 28.1263 85.2145 27.6793C85.0005 27.2324 84.8935 26.7049 84.8935 26.0969C84.8935 25.489 85.0005 24.9615 85.2145 24.5146C85.4304 24.0676 85.7277 23.7219 86.1065 23.4776C86.4853 23.2314 86.919 23.1083 87.4077 23.1083C87.7183 23.1083 88.0033 23.1566 88.2628 23.2532C88.5223 23.3479 88.7514 23.4824 88.9503 23.6566C89.151 23.829 89.3158 24.0297 89.4446 24.2589C89.5753 24.488 89.6643 24.7371 89.7116 25.006Z" fill="#5BD566"/>
<path d="M45.8657 29.006V23.1879H47.7436C48.1564 23.1879 48.5011 23.2627 48.7777 23.4123C49.0561 23.56 49.2653 23.7655 49.4055 24.0288C49.5475 24.2901 49.6186 24.5903 49.6186 24.9293C49.6186 25.2684 49.5475 25.5676 49.4055 25.8271C49.2653 26.0865 49.057 26.2892 48.7805 26.435C48.226 26.7274 48.6351 26.5061 48.226 26.5061L47.7379 26.168C48.0409 26.168 48.2928 26.1178 48.4936 26.0174C48.6962 25.917 48.8468 25.774 48.9453 25.5884C49.0456 25.4028 49.0958 25.1831 49.0958 24.9293C49.0958 24.6756 49.0456 24.454 48.9453 24.2646C48.8449 24.0733 48.6934 23.9256 48.4907 23.8214C48.29 23.7172 48.0362 23.6651 47.7294 23.6651H46.397V29.006H45.8657ZM48.4311 26.381L49.8629 29.006H49.2492L47.7379 26.168L48.4311 26.381Z" fill="#5BD566"/>
</svg>
