<svg width="31" height="25" viewBox="0 0 31 25" fill="none" xmlns="http://www.w3.org/2000/svg">
<rect x="3" y="10.1855" width="4.62963" height="4.62963" rx="2.31481" fill="#5BD566"/>
<path d="M0.995431 9.27329C0.593485 4.44995 4.66587 0.444322 9.48192 0.925926V0.925926L9.07177 1.54115C7.55932 3.80981 7.03858 6.59759 7.63006 9.25926V9.25926V9.25926C5.74472 8.18192 3.36135 8.58224 1.93144 10.2164L1.14858 11.1111L0.995431 9.27329Z" fill="#DFDFDF"/>
<path d="M9.63543 15.7267C10.0374 20.5501 5.96499 24.5557 1.14894 24.0741V24.0741L1.55909 23.4589C3.07154 21.1902 3.59228 18.4024 3.0008 15.7407V15.7407V15.7407C4.88614 16.8181 7.26951 16.4178 8.69942 14.7836L9.48228 13.8889L9.63543 15.7267Z" fill="#DFDFDF"/>
<circle cx="17.3742" cy="11.8166" r="2.68868" stroke="#DFDFDF" stroke-width="3"/>
<path d="M13.1855 11.8164L14.4422 13.7612L15.6988 15.3169V20.1938C15.6988 21.5818 14.5736 22.707 13.1855 22.707V22.707V11.8164Z" fill="#DFDFDF"/>
<circle cx="26.5896" cy="11.8162" r="2.68868" transform="rotate(-180 26.5896 11.8162)" stroke="#DFDFDF" stroke-width="3"/>
<path d="M30.7783 11.8164L29.5217 9.87166L28.2651 8.31587V3.43904C28.2651 2.05104 29.3903 0.925837 30.7783 0.925837V0.925837V11.8164Z" fill="#DFDFDF"/>
</svg>
