<svg width="33" height="35" viewBox="0 0 33 35" fill="none" xmlns="http://www.w3.org/2000/svg">
<rect x="4.77734" y="19.8613" width="4.62963" height="4.62963" rx="2.31481" fill="#87B463"/>
<path d="M2.77277 18.9491C2.37083 14.1257 6.44322 10.1201 11.2593 10.6017V10.6017L10.8491 11.2169C9.33667 13.4856 8.81592 16.2734 9.40741 18.935V18.935V18.935C7.52206 17.8577 5.13869 18.258 3.70878 19.8922L2.92593 20.7869L2.77277 18.9491Z" fill="#232323"/>
<path d="M11.4128 25.4025C11.8147 30.2258 7.74233 34.2315 2.92629 33.7499V33.7499L3.33643 33.1346C4.84888 30.866 5.36962 28.0782 4.77814 25.4165V25.4165V25.4165C6.66349 26.4939 9.04686 26.0935 10.4768 24.4594L11.2596 23.5647L11.4128 25.4025Z" fill="#232323"/>
<circle cx="19.1516" cy="21.4914" r="2.68868" stroke="#232323" stroke-width="3"/>
<path d="M14.9629 21.4922L16.2195 23.4369L17.4761 24.9927V29.8695C17.4761 31.2576 16.3509 32.3828 14.9629 32.3828V32.3828V21.4922Z" fill="#232323"/>
<circle cx="28.366" cy="21.493" r="2.68868" transform="rotate(-180 28.366 21.493)" stroke="#232323" stroke-width="3"/>
<path d="M32.5547 21.4922L31.2981 19.5474L30.0415 17.9916V13.1148C30.0415 11.7268 31.1667 10.6016 32.5547 10.6016V10.6016V21.4922Z" fill="#232323"/>
<g clip-path="url(#clip0_1431_354)">
<path d="M14.1389 2.21004C13.2367 2.11039 12.4335 2.74148 12.3359 3.62546C12.2383 4.50857 12.8845 5.29916 13.7867 5.39881C14.6888 5.49845 15.4919 4.86794 15.5895 3.98483C15.6871 3.10085 15.041 2.30968 14.1389 2.21004ZM11.8414 4.25336C10.2255 4.92327 8.45283 5.65804 6.86109 6.48913C4.85632 7.53586 3.18414 8.74556 2.48862 10.0984C5.86997 11.2879 9.29532 12.6673 13.5864 13.1207C14.126 10.7291 14.6699 8.21764 14.3693 5.89762C14.1584 5.9369 13.9425 5.94473 13.729 5.92084C12.7795 5.81597 12.0387 5.12354 11.8414 4.25336ZM1.85342 10.4363C1.19304 11.2 0.925015 12.0246 0.839239 12.8283C1.11617 12.9557 1.41382 13.0826 1.72718 13.2082C1.80531 12.8234 1.98887 12.3271 2.29412 11.6533L2.78379 11.8659C2.45774 12.5843 2.28823 13.0999 2.23652 13.4053C2.59511 13.5389 2.97206 13.6715 3.35912 13.7994C3.51303 13.2733 3.74033 12.7876 3.96666 12.3107L4.45091 12.5344C4.22162 13.0111 4.0048 13.4832 3.8708 13.9645C4.30223 14.0973 4.7458 14.2285 5.19593 14.3546L5.64254 12.8862L6.15878 13.0372L5.71609 14.4972C6.18429 14.6223 6.65937 14.7393 7.13476 14.8535L7.51021 13.433L8.02838 13.5666L7.65453 14.9725C8.17461 15.0887 8.69238 15.1987 9.20255 15.2962L9.52891 13.9407L10.0484 14.0627L9.72752 15.3952C10.3028 15.4999 10.8645 15.5913 11.3983 15.6649C11.557 15.2304 11.6178 14.8701 11.7009 14.3891L12.2294 14.4827C12.1508 14.9231 12.0878 15.3037 11.9383 15.7363C12.3958 15.7956 12.8312 15.8379 13.2321 15.8675C13.753 15.2175 14.0953 14.3952 14.092 13.6933C9.25204 13.2761 5.50415 11.6996 1.85342 10.4363Z" fill="#F60000"/>
</g>
<defs>
<clipPath id="clip0_1431_354">
<rect width="13.6902" height="13.6902" fill="white" transform="translate(2.1582 0.886719) rotate(6.30304)"/>
</clipPath>
</defs>
</svg>
