<svg width="32" height="34" viewBox="0 0 32 34" fill="none" xmlns="http://www.w3.org/2000/svg">
<rect x="4.12305" y="18.9746" width="4.62963" height="4.62963" rx="2.31481" fill="#5BD566"/>
<path d="M2.11848 18.0624C1.71653 13.239 5.78892 9.23338 10.605 9.71499V9.71499L10.1948 10.3302C8.68237 12.5989 8.16163 15.3867 8.75311 18.0483V18.0483V18.0483C6.86776 16.971 4.48439 17.3713 3.05448 19.0055L2.27163 19.9002L2.11848 18.0624Z" fill="#DFDFDF"/>
<path d="M10.7585 24.5158C11.1604 29.3391 7.08803 33.3447 2.27199 32.8631V32.8631L2.68214 32.2479C4.19458 29.9792 4.71533 27.1915 4.12384 24.5298V24.5298V24.5298C6.00919 25.6071 8.39256 25.2068 9.82247 23.5726L10.6053 22.678L10.7585 24.5158Z" fill="#DFDFDF"/>
<circle cx="18.4973" cy="20.6047" r="2.68868" stroke="#DFDFDF" stroke-width="3"/>
<path d="M14.3086 20.6055L15.5652 22.5502L16.8218 24.106V28.9828C16.8218 30.3708 15.6966 31.496 14.3086 31.496V31.496V20.6055Z" fill="#DFDFDF"/>
<circle cx="27.7117" cy="20.6062" r="2.68868" transform="rotate(-180 27.7117 20.6062)" stroke="#DFDFDF" stroke-width="3"/>
<path d="M31.9004 20.6055L30.6438 18.6607L29.3872 17.1049V12.2281C29.3872 10.8401 30.5124 9.7149 31.9004 9.7149V9.7149V20.6055Z" fill="#DFDFDF"/>
<g clip-path="url(#clip0_1431_355)">
<path d="M13.4846 1.32332C12.5824 1.22368 11.7792 1.85476 11.6816 2.73874C11.584 3.62185 12.2302 4.41244 13.1324 4.51209C14.0345 4.61173 14.8376 3.98123 14.9352 3.09812C15.0328 2.21414 14.3867 1.42297 13.4846 1.32332ZM11.1871 3.36664C9.57124 4.03655 7.79853 4.77132 6.20679 5.60241C4.20202 6.64915 2.52984 7.85885 1.83433 9.21165C5.21568 10.4012 8.64103 11.7806 12.9321 12.234C13.4717 9.84242 14.0156 7.33092 13.715 5.0109C13.5041 5.05019 13.2882 5.05801 13.0747 5.03412C12.1252 4.92925 11.3844 4.23682 11.1871 3.36664ZM1.19912 9.54954C0.538744 10.3132 0.270718 11.1379 0.184942 11.9416C0.46187 12.069 0.759527 12.1958 1.07289 12.3215C1.15101 11.9367 1.33458 11.4403 1.63983 10.7666L2.1295 10.9792C1.80344 11.6976 1.63393 12.2132 1.58223 12.5186C1.94081 12.6522 2.31777 12.7848 2.70482 12.9127C2.85874 12.3866 3.08603 11.9009 3.31236 11.4239L3.79661 11.6477C3.56732 12.1244 3.3505 12.5965 3.2165 13.0778C3.64793 13.2106 4.0915 13.3418 4.54164 13.4678L4.98825 11.9995L5.50448 12.1504L5.0618 13.6104C5.52999 13.7355 6.00507 13.8526 6.48047 13.9668L6.85592 12.5463L7.37408 12.6799L7.00023 14.0858C7.52032 14.202 8.03808 14.312 8.54826 14.4094L8.87461 13.054L9.39405 13.176L9.07322 14.5085C9.64847 14.6132 10.2102 14.7046 10.744 14.7782C10.9027 14.3437 10.9635 13.9834 11.0466 13.5024L11.5751 13.596C11.4965 14.0364 11.4335 14.417 11.284 14.8496C11.7415 14.9089 12.1769 14.9512 12.5778 14.9808C13.0987 14.3308 13.441 13.5085 13.4377 12.8065C8.59774 12.3894 4.84986 10.8129 1.19912 9.54954Z" fill="#DF0000"/>
</g>
<defs>
<clipPath id="clip0_1431_355">
<rect width="13.6902" height="13.6902" fill="white" transform="translate(1.50391) rotate(6.30304)"/>
</clipPath>
</defs>
</svg>
