<svg width="146" height="34" viewBox="0 0 146 34" fill="none" xmlns="http://www.w3.org/2000/svg">
<rect x="4.21484" y="15.4883" width="5.72384" height="5.72384" rx="2.86192" fill="#87B463"/>
<path d="M1.73667 14.3615C1.23972 8.39818 6.27462 3.44582 12.2289 4.04125V4.04125L11.7218 4.80188C9.85193 7.60675 9.20812 11.0534 9.93939 14.3442V14.3442V14.3442C7.60845 13.0122 4.66177 13.5071 2.8939 15.5275L1.92602 16.6337L1.73667 14.3615Z" fill="#232323"/>
<path d="M12.4196 22.3397C12.9165 28.303 7.88163 33.2554 1.92732 32.6599V32.6599L2.43441 31.8993C4.30432 29.0944 4.94813 25.6478 4.21686 22.357V22.357V22.357C6.5478 23.689 9.49448 23.194 11.2623 21.1736L12.2302 20.0675L12.4196 22.3397Z" fill="#232323"/>
<path d="M37.1386 14.5048C37.1386 16.5365 35.4916 18.1835 33.4599 18.1835C31.4282 18.1835 29.7812 16.5365 29.7812 14.5048C29.7812 12.4732 31.4282 10.8262 33.4599 10.8262C35.4916 10.8262 37.1386 12.4732 37.1386 14.5048Z" stroke="#232323" stroke-width="3"/>
<path fill-rule="evenodd" clip-rule="evenodd" d="M24.1659 14.5048C24.1659 15.7081 23.1905 16.6835 21.9873 16.6835C20.784 16.6835 19.8086 15.7081 19.8086 14.5048C19.8086 13.3016 20.784 12.3262 21.9873 12.3262C23.1905 12.3262 24.1659 13.3016 24.1659 14.5048ZM27.1659 14.5048C27.1659 17.3649 24.8474 19.6835 21.9873 19.6835C21.2508 19.6835 20.5501 19.5298 19.9158 19.2526V24.8622C19.9158 26.5783 18.5247 27.9694 16.8086 27.9694V14.5049C16.8086 14.5049 16.8086 14.5049 16.8086 14.5048C16.8086 11.6447 19.1272 9.32617 21.9873 9.32617C24.8474 9.32617 27.1659 11.6447 27.1659 14.5048Z" fill="#232323"/>
<path fill-rule="evenodd" clip-rule="evenodd" d="M84.1386 14.361C84.1386 14.3611 84.1386 14.3611 84.1386 14.3611C84.1386 17.2212 81.82 19.5398 78.9599 19.5398C76.0998 19.5398 73.7812 17.2212 73.7812 14.3611C73.7812 11.501 76.0998 9.18246 78.9599 9.18246C79.6964 9.18246 80.397 9.33621 81.0314 9.61337V4.00368C81.0314 2.28762 82.4225 0.896484 84.1386 0.896484V14.361ZM76.7812 14.3611C76.7812 13.1579 77.7567 12.1825 78.9599 12.1825C80.1632 12.1825 81.1386 13.1579 81.1386 14.3611C81.1386 15.5644 80.1632 16.5398 78.9599 16.5398C77.7567 16.5398 76.7812 15.5644 76.7812 14.3611Z" fill="#232323"/>
<path d="M39.4201 9.50729C39.349 9.19441 39.5868 8.89648 39.9076 8.89648H42.2813L43.7813 15.8965L45.2813 8.89648H48.2813L49.7813 15.8965L51.1966 9.29172C51.246 9.06118 51.4497 8.89648 51.6855 8.89648H54.2813L52.312 17.5613C52.0015 18.9272 50.7873 19.8965 49.3866 19.8965H48.2813L46.7813 13.8965L45.8493 17.6241C45.5155 18.9596 44.3155 19.8965 42.9389 19.8965H41.7813L39.4201 9.50729Z" fill="#232323"/>
<path d="M90.4886 9.54809C90.386 9.22561 90.6266 8.89648 90.965 8.89648H93.2813L95.2813 15.8965L97.2813 8.89648L100.281 8.89648L96.7813 19.8965H93.7813L90.4886 9.54809Z" fill="#232323"/>
<path fill-rule="evenodd" clip-rule="evenodd" d="M63.6105 15.3965H57.952C58.3638 16.5617 59.475 17.3965 60.7812 17.3965C61.5145 17.3965 62.1863 17.1334 62.7075 16.6965H65.7787C64.9079 18.5854 62.9977 19.8965 60.7812 19.8965C57.7437 19.8965 55.2812 17.4341 55.2812 14.3965C55.2812 11.3589 57.7437 8.89648 60.7812 8.89648C63.8188 8.89648 66.2812 11.3589 66.2812 14.3965C66.2812 14.738 66.2501 15.0722 66.1906 15.3965L63.6105 15.3965ZM60.7812 11.3965C59.475 11.3965 58.3638 12.2313 57.952 13.3965H63.6105C63.1987 12.2313 62.0875 11.3965 60.7812 11.3965Z" fill="#232323"/>
<path fill-rule="evenodd" clip-rule="evenodd" d="M109.521 15.3965H103.862C104.274 16.5617 105.385 17.3965 106.692 17.3965C107.425 17.3965 108.097 17.1334 108.618 16.6965H111.689C110.818 18.5854 108.908 19.8965 106.692 19.8965C103.654 19.8965 101.192 17.4341 101.192 14.3965C101.192 11.3589 103.654 8.89648 106.692 8.89648C109.729 8.89648 112.192 11.3589 112.192 14.3965C112.192 14.738 112.16 15.0722 112.101 15.3965L109.521 15.3965ZM106.692 11.3965C105.385 11.3965 104.274 12.2313 103.862 13.3965H109.521C109.109 12.2313 107.998 11.3965 106.692 11.3965Z" fill="#232323"/>
<path d="M70.2812 7.89648H67.2812V19.8965C68.9381 19.8965 70.2812 18.5533 70.2812 16.8965V11.8965C70.2812 11.0128 70.9976 10.2965 71.8813 10.2965H72.9595V7.89648L71.7531 8.06228C71.1511 8.16431 70.6345 8.4881 70.2812 8.94131V7.89648Z" fill="#232323"/>
<path d="M116.406 7.94727H113.406V19.9473C115.063 19.9473 116.406 18.6041 116.406 16.9473V11.9473C116.406 11.0636 117.123 10.3473 118.006 10.3473H119.085V7.94727L117.878 8.11306C117.276 8.21509 116.76 8.53888 116.406 8.99209V7.94727Z" fill="#232323"/>
<path d="M142.781 7.89648H139.781V19.8965C141.438 19.8965 142.781 18.5533 142.781 16.8965V11.8965C142.781 11.0128 143.498 10.2965 144.381 10.2965H145.46V7.89648L144.253 8.06228C143.651 8.16431 143.135 8.4881 142.781 8.94131V7.89648Z" fill="#232323"/>
<path fill-rule="evenodd" clip-rule="evenodd" d="M136.111 15.3965H130.452C130.864 16.5617 131.975 17.3965 133.281 17.3965C134.015 17.3965 134.686 17.1334 135.207 16.6965H138.279C137.408 18.5854 135.498 19.8965 133.281 19.8965C130.244 19.8965 127.781 17.4341 127.781 14.3965C127.781 11.3589 130.244 8.89648 133.281 8.89648C136.319 8.89648 138.781 11.3589 138.781 14.3965C138.781 14.738 138.75 15.0722 138.691 15.3965L136.111 15.3965ZM133.281 11.3965C131.975 11.3965 130.864 12.2313 130.452 13.3965H136.111C135.699 12.2313 134.587 11.3965 133.281 11.3965Z" fill="#232323"/>
<path d="M85.7812 8.89648H88.7812V19.8965H85.7812V8.89648Z" fill="#232323"/>
<path d="M124.781 4.89648H121.781V7.89648H120.281V10.3965H121.781V18.8965H124.781V10.3965H125.281C126.386 10.3965 127.281 9.50105 127.281 8.39648V7.89648H124.781V4.89648Z" fill="#232323"/>
<path d="M85.7812 4.89648V4.89648C87.4381 4.89648 88.7812 6.23963 88.7812 7.89648V7.89648H85.7812V4.89648Z" fill="#87B463"/>
<path d="M27.7124 25.533C27.6802 25.2092 27.5372 24.9516 27.2834 24.7603C27.0296 24.569 26.7105 24.4734 26.326 24.4734C26.0552 24.4734 25.8165 24.5198 25.6101 24.6126C25.4055 24.7054 25.2446 24.8342 25.1271 24.9989C25.0116 25.1618 24.9538 25.3474 24.9538 25.5558C24.9538 25.7092 24.987 25.8436 25.0533 25.9592C25.1196 26.0747 25.2086 26.1741 25.3203 26.2575C25.4339 26.3389 25.5589 26.409 25.6953 26.4677C25.8336 26.5264 25.9728 26.5756 26.1129 26.6154L26.7266 26.7915C26.9122 26.8427 27.0978 26.908 27.2834 26.9876C27.469 27.0671 27.6385 27.1675 27.7919 27.2887C27.9472 27.408 28.0713 27.5548 28.1641 27.729C28.2588 27.9014 28.3061 28.1088 28.3061 28.3512C28.3061 28.6618 28.2256 28.9412 28.0646 29.1893C27.9036 29.4374 27.6726 29.6344 27.3714 29.7802C27.0703 29.9241 26.7095 29.9961 26.2891 29.9961C25.8932 29.9961 25.5495 29.9308 25.2578 29.8001C24.9661 29.6675 24.737 29.4847 24.5703 29.2518C24.4036 29.0188 24.3099 28.7489 24.2891 28.4421H24.8345C24.8535 28.6713 24.9292 28.8654 25.0618 29.0245C25.1944 29.1836 25.3667 29.3048 25.5788 29.3881C25.791 29.4696 26.0277 29.5103 26.2891 29.5103C26.5788 29.5103 26.8364 29.462 27.0618 29.3654C27.2891 29.2669 27.4671 29.1306 27.5959 28.9563C27.7266 28.7802 27.7919 28.5756 27.7919 28.3427C27.7919 28.1457 27.7408 27.9809 27.6385 27.8484C27.5362 27.7139 27.3932 27.6012 27.2095 27.5103C27.0277 27.4194 26.8165 27.3389 26.576 27.2688L25.88 27.0643C25.4235 26.9279 25.0694 26.7395 24.8175 26.4989C24.5656 26.2584 24.4396 25.9516 24.4396 25.5785C24.4396 25.266 24.523 24.9914 24.6896 24.7546C24.8582 24.516 25.0855 24.3304 25.3714 24.1978C25.6593 24.0633 25.9822 23.9961 26.3402 23.9961C26.7019 23.9961 27.022 24.0624 27.3004 24.195C27.5788 24.3275 27.7995 24.5103 27.9624 24.7433C28.1271 24.9743 28.2152 25.2376 28.2266 25.533H27.7124Z" fill="#87B463"/>
<path d="M34.3544 26.9876C34.3544 27.5936 34.2464 28.1211 34.0305 28.57C33.8146 29.0169 33.5173 29.3635 33.1385 29.6097C32.7616 29.854 32.3279 29.9762 31.8374 29.9762C31.3468 29.9762 30.9122 29.854 30.5334 29.6097C30.1565 29.3635 29.8601 29.0169 29.6442 28.57C29.4302 28.1211 29.3232 27.5936 29.3232 26.9876C29.3232 26.3815 29.4302 25.855 29.6442 25.408C29.8601 24.9592 30.1574 24.6126 30.5362 24.3683C30.915 24.122 31.3487 23.9989 31.8374 23.9989C32.3279 23.9989 32.7616 24.122 33.1385 24.3683C33.5173 24.6126 33.8146 24.9592 34.0305 25.408C34.2464 25.855 34.3544 26.3815 34.3544 26.9876ZM33.8374 26.9876C33.8374 26.4667 33.7502 26.0207 33.576 25.6495C33.4018 25.2764 33.1641 24.9914 32.8629 24.7944C32.5618 24.5974 32.2199 24.4989 31.8374 24.4989C31.4567 24.4989 31.1158 24.5974 30.8146 24.7944C30.5135 24.9914 30.2749 25.2754 30.0987 25.6467C29.9245 26.0179 29.8374 26.4648 29.8374 26.9876C29.8374 27.5084 29.9245 27.9544 30.0987 28.3256C30.273 28.6969 30.5107 28.9819 30.8118 29.1808C31.1129 29.3777 31.4548 29.4762 31.8374 29.4762C32.2199 29.4762 32.5618 29.3777 32.8629 29.1808C33.166 28.9838 33.4046 28.6997 33.5788 28.3285C33.7531 27.9554 33.8393 27.5084 33.8374 26.9876Z" fill="#87B463"/>
<path d="M35.6392 29.8967V24.0785H36.1705V29.4194H38.9432V29.8967H35.6392Z" fill="#87B463"/>
<path d="M40.5149 29.8967H39.9581L42.0746 24.0785H42.6428L44.7592 29.8967H44.2024L42.3786 24.7688H42.3388L40.5149 29.8967ZM40.9155 27.6665H43.8018V28.1438H40.9155V27.6665Z" fill="#87B463"/>
<path d="M53.0533 29.8967V24.0785H56.4283V24.5558H53.5845V26.7461H56.2493V27.2234H53.5845V29.4194H56.4851V29.8967H53.0533Z" fill="#87B463"/>
<path d="M57.8033 29.8967V24.0785H58.3345V29.4194H61.1072V29.8967H57.8033Z" fill="#87B463"/>
<path d="M62.3033 29.8967V24.0785H65.6783V24.5558H62.8345V26.7461H65.4993V27.2234H62.8345V29.4194H65.7351V29.8967H62.3033Z" fill="#87B463"/>
<path d="M71.6101 25.8967H71.076C71.0362 25.6978 70.9643 25.5141 70.8601 25.3455C70.7578 25.1751 70.629 25.0264 70.4737 24.8995C70.3184 24.7726 70.1423 24.6741 69.9453 24.604C69.7483 24.534 69.5353 24.4989 69.3061 24.4989C68.9387 24.4989 68.6035 24.5946 68.3004 24.7859C67.9993 24.9772 67.7578 25.2584 67.576 25.6296C67.3961 25.9989 67.3061 26.4516 67.3061 26.9876C67.3061 27.5273 67.3961 27.9819 67.576 28.3512C67.7578 28.7205 67.9993 29.0008 68.3004 29.1921C68.6035 29.3815 68.9387 29.4762 69.3061 29.4762C69.5353 29.4762 69.7483 29.4412 69.9453 29.3711C70.1423 29.301 70.3184 29.2035 70.4737 29.0785C70.629 28.9516 70.7578 28.8029 70.8601 28.6325C70.9643 28.462 71.0362 28.2773 71.076 28.0785H71.6101C71.5627 28.3455 71.4737 28.5946 71.343 28.8256C71.2143 29.0548 71.0495 29.2556 70.8487 29.4279C70.6499 29.6003 70.4207 29.7347 70.1612 29.8313C69.9018 29.9279 69.6167 29.9762 69.3061 29.9762C68.8175 29.9762 68.3838 29.854 68.005 29.6097C67.6262 29.3635 67.3288 29.0169 67.1129 28.57C66.8989 28.123 66.7919 27.5955 66.7919 26.9876C66.7919 26.3796 66.8989 25.8522 67.1129 25.4052C67.3288 24.9582 67.6262 24.6126 68.005 24.3683C68.3838 24.122 68.8175 23.9989 69.3061 23.9989C69.6167 23.9989 69.9018 24.0472 70.1612 24.1438C70.4207 24.2385 70.6499 24.373 70.8487 24.5472C71.0495 24.7196 71.2143 24.9203 71.343 25.1495C71.4737 25.3787 71.5627 25.6277 71.6101 25.8967Z" fill="#87B463"/>
<path d="M72.5057 24.5558V24.0785H76.7244V24.5558H74.8807V29.8967H74.3494V24.5558H72.5057Z" fill="#87B463"/>
<path d="M77.9205 29.8967V24.0785H79.7983C80.2112 24.0785 80.5559 24.1533 80.8324 24.3029C81.1108 24.4506 81.3201 24.6561 81.4602 24.9194C81.6023 25.1808 81.6733 25.4809 81.6733 25.82C81.6733 26.159 81.6023 26.4582 81.4602 26.7177C81.3201 26.9772 81.1117 27.1798 80.8352 27.3256C80.2808 27.6181 80.6899 27.3967 80.2808 27.3967L79.7926 27.0586C80.0956 27.0586 80.3475 27.0084 80.5483 26.908C80.7509 26.8076 80.9015 26.6647 81 26.479C81.1004 26.2934 81.1506 26.0737 81.1506 25.82C81.1506 25.5662 81.1004 25.3446 81 25.1552C80.8996 24.9639 80.7481 24.8162 80.5455 24.712C80.3447 24.6078 80.0909 24.5558 79.7841 24.5558H78.4517V29.8967H77.9205ZM80.4858 27.2717L81.9176 29.8967H81.304L79.7926 27.0586L80.4858 27.2717Z" fill="#87B463"/>
<path d="M83.4986 24.0785V29.8967H82.9673V24.0785H83.4986Z" fill="#87B463"/>
<path d="M89.6023 25.8967H89.0682C89.0284 25.6978 88.9564 25.5141 88.8523 25.3455C88.75 25.1751 88.6212 25.0264 88.4659 24.8995C88.3106 24.7726 88.1345 24.6741 87.9375 24.604C87.7405 24.534 87.5275 24.4989 87.2983 24.4989C86.9309 24.4989 86.5956 24.5946 86.2926 24.7859C85.9915 24.9772 85.75 25.2584 85.5682 25.6296C85.3883 25.9989 85.2983 26.4516 85.2983 26.9876C85.2983 27.5273 85.3883 27.9819 85.5682 28.3512C85.75 28.7205 85.9915 29.0008 86.2926 29.1921C86.5956 29.3815 86.9309 29.4762 87.2983 29.4762C87.5275 29.4762 87.7405 29.4412 87.9375 29.3711C88.1345 29.301 88.3106 29.2035 88.4659 29.0785C88.6212 28.9516 88.75 28.8029 88.8523 28.6325C88.9564 28.462 89.0284 28.2773 89.0682 28.0785H89.6023C89.5549 28.3455 89.4659 28.5946 89.3352 28.8256C89.2064 29.0548 89.0417 29.2556 88.8409 29.4279C88.642 29.6003 88.4129 29.7347 88.1534 29.8313C87.8939 29.9279 87.6089 29.9762 87.2983 29.9762C86.8097 29.9762 86.3759 29.854 85.9972 29.6097C85.6184 29.3635 85.321 29.0169 85.1051 28.57C84.8911 28.123 84.7841 27.5955 84.7841 26.9876C84.7841 26.3796 84.8911 25.8522 85.1051 25.4052C85.321 24.9582 85.6184 24.6126 85.9972 24.3683C86.3759 24.122 86.8097 23.9989 87.2983 23.9989C87.6089 23.9989 87.8939 24.0472 88.1534 24.1438C88.4129 24.2385 88.642 24.373 88.8409 24.5472C89.0417 24.7196 89.2064 24.9203 89.3352 25.1495C89.4659 25.3787 89.5549 25.6277 89.6023 25.8967Z" fill="#87B463"/>
<path d="M45.7563 29.8967V24.0785H47.6342C48.0471 24.0785 48.3918 24.1533 48.6683 24.3029C48.9467 24.4507 49.156 24.6561 49.2961 24.9194C49.4382 25.1808 49.5092 25.481 49.5092 25.82C49.5092 26.159 49.4382 26.4582 49.2961 26.7177C49.156 26.9772 48.9476 27.1798 48.6711 27.3257C48.1167 27.6181 48.5257 27.3967 48.1167 27.3967L47.6285 27.0586C47.9315 27.0586 48.1834 27.0084 48.3842 26.908C48.5868 26.8077 48.7374 26.6647 48.8359 26.4791C48.9363 26.2935 48.9865 26.0738 48.9865 25.82C48.9865 25.5662 48.9363 25.3446 48.8359 25.1552C48.7355 24.9639 48.584 24.8162 48.3813 24.712C48.1806 24.6078 47.9268 24.5558 47.62 24.5558H46.2876V29.8967H45.7563ZM48.3217 27.2717L49.7535 29.8967H49.1399L47.6285 27.0586L48.3217 27.2717Z" fill="#87B463"/>
</svg>
