<svg width="98" height="83" viewBox="0 0 98 83" fill="none" xmlns="http://www.w3.org/2000/svg">
<path fill-rule="evenodd" clip-rule="evenodd" d="M11 20C11 15.0294 15.0294 11 20 11H77.598C82.5686 11 86.598 15.0294 86.598 20V55.0754C86.598 60.0459 82.5686 64.0754 77.598 64.0754H20C15.0294 64.0754 11 60.0459 11 55.0754V20ZM17.1004 74.8667C7.42884 73.4621 0 65.1363 0 55.0754V20C0 8.95428 8.95431 -1.52588e-05 20 -1.52588e-05H77.598C88.6437 -1.52588e-05 97.598 8.95429 97.598 20V55.0754C97.598 63.8858 91.901 71.3657 83.9899 74.0322V77.5C83.9899 80.5376 81.5274 83 78.4899 83C75.4523 83 72.9899 80.5376 72.9899 77.5V75.0754H56.4624V77.5C56.4624 80.5376 53.9999 83 50.9624 83C47.9248 83 45.4624 80.5376 45.4624 77.5V75.0754H28.1004V77.5C28.1004 80.5376 25.6379 83 22.6004 83C19.5628 83 17.1004 80.5376 17.1004 77.5V74.8667ZM75.1657 32.5326C75.1657 27.1123 70.6168 22.4321 64.6481 22.4321C58.6795 22.4321 54.1306 27.1123 54.1306 32.5326C54.1306 37.9529 58.6795 42.6331 64.6481 42.6331C70.6168 42.6331 75.1657 37.9529 75.1657 32.5326ZM82.1657 32.5326C82.1657 23.0883 74.3228 15.4321 64.6481 15.4321C54.9734 15.4321 47.1306 23.0883 47.1306 32.5326C47.1306 41.977 54.9734 49.6331 64.6481 49.6331C74.3228 49.6331 82.1657 41.977 82.1657 32.5326ZM31.2815 32.9498C34.5064 32.9498 37.1207 30.3355 37.1207 27.1106C37.1207 23.8857 34.5064 21.2714 31.2815 21.2714C28.0566 21.2714 25.4423 23.8857 25.4423 27.1106C25.4423 30.3355 28.0566 32.9498 31.2815 32.9498ZM37.1207 44.6281C37.1207 47.853 34.5064 50.4673 31.2815 50.4673C28.0566 50.4673 25.4423 47.853 25.4423 44.6281C25.4423 41.4032 28.0566 38.7889 31.2815 38.7889C34.5064 38.7889 37.1207 41.4032 37.1207 44.6281Z" fill="black"/>
</svg>
