<svg width="22" height="22" viewBox="0 0 22 22" fill="none" xmlns="http://www.w3.org/2000/svg">
<path fill-rule="evenodd" clip-rule="evenodd" d="M5.3576 16.3685C5.69192 16.8769 6.08514 17.3477 6.53117 17.7705C7.64635 18.8275 9.04393 19.5386 10.5548 19.818C12.0657 20.0973 13.6252 19.9328 15.0446 19.3444C16.4639 18.756 17.6824 17.7689 18.5525 16.5025C19.4226 15.2361 19.9071 13.7447 19.9474 12.2088C19.9876 10.6728 19.5819 9.15806 18.7794 7.84783C17.9768 6.5376 16.8117 5.48801 15.4251 4.82606C14.4917 4.38045 13.4848 4.12335 12.4617 4.06384L12.989 6.0318C13.5465 6.12417 14.0913 6.29468 14.6066 6.54069C15.6618 7.04444 16.5484 7.84318 17.1592 8.84027C17.7699 9.83737 18.0787 10.9901 18.048 12.159C18.0174 13.3279 17.6487 14.4628 16.9865 15.4265C16.3243 16.3903 15.3971 17.1415 14.317 17.5892C13.2368 18.037 12.05 18.1622 10.9002 17.9496C9.75044 17.7371 8.68687 17.1958 7.83821 16.3915C7.65543 16.2182 7.48431 16.0344 7.32556 15.8412L5.3576 16.3685Z" fill="#CCD2E3"/>
<path d="M5.91239 4.06647C6.68924 3.47037 7.54796 2.99272 8.46042 2.64739C8.87978 2.48868 9.08946 2.40932 9.28694 2.51053C9.48442 2.61174 9.54649 2.84338 9.67063 3.30667L11.7412 11.0341C11.8632 11.4894 11.9242 11.7171 11.8206 11.8964C11.7171 12.0758 11.4894 12.1368 11.0341 12.2588L3.30667 14.3294C2.84338 14.4535 2.61174 14.5156 2.42535 14.3952C2.23896 14.2747 2.20284 14.0535 2.13061 13.6109C1.97344 12.6481 1.95774 11.6656 2.08555 10.6947C2.25696 9.39275 2.68314 8.13728 3.33975 7C3.99636 5.86272 4.87054 4.8659 5.91239 4.06647Z" stroke="#CCD2E3" stroke-width="1.9"/>
</svg>
