<svg width="100" height="100" viewBox="0 0 100 100" fill="none" xmlns="http://www.w3.org/2000/svg">
<path fill-rule="evenodd" clip-rule="evenodd" d="M55.3119 28.1869C52.9775 24.9075 50.8019 24 49.5 24C47.8454 24 44.7797 25.4657 41.7703 31.4032C40.4178 34.0716 39.2714 37.3201 38.4415 41H60.5585C60.177 39.3085 59.7287 37.7082 59.2242 36.2134L67.71 48.0274C67.9006 50.1282 68 52.2912 68 54.5C68 57.0707 67.8653 59.5794 67.6091 62H79.071C79.6777 59.6006 80 57.0879 80 54.5C80 51.9121 79.6777 49.3994 79.071 47H77.028L83.3087 38.2559C85.6744 43.1707 87 48.6805 87 54.5C87 75.2107 70.2107 92 49.5 92C28.7893 92 12 75.2107 12 54.5C12 33.7893 28.7893 17 49.5 17C51.9498 17 54.3448 17.2349 56.6636 17.6835C55.138 20.8904 54.5967 24.5677 55.3119 28.1869ZM49.5 85C51.1546 85 54.2203 83.5343 57.2297 77.5968C58.5822 74.9284 59.7286 71.6799 60.5585 68H38.4415C39.2714 71.6799 40.4178 74.9284 41.7703 77.5968C44.7797 83.5343 47.8454 85 49.5 85ZM37.4276 62H61.5724C61.8501 59.6115 62 57.1016 62 54.5C62 51.8984 61.8501 49.3885 61.5724 47H37.4276C37.1499 49.3885 37 51.8984 37 54.5C37 57.1016 37.1499 59.6115 37.4276 62ZM61.2827 82.6408C63.658 78.765 65.5343 73.7411 66.6934 68H76.8572C73.6108 74.566 68.0702 79.7954 61.2827 82.6408ZM19 54.5C19 57.0879 19.3223 59.6006 19.929 62H31.3909C31.1347 59.5794 31 57.0707 31 54.5C31 51.9293 31.1347 49.4206 31.3909 47H19.929C19.3223 49.3994 19 51.9121 19 54.5ZM37.7173 82.6408C30.9298 79.7954 25.3892 74.566 22.1428 68H32.3066C33.4657 73.7411 35.342 78.765 37.7173 82.6408ZM22.1428 41H32.3066C33.4657 35.2589 35.342 30.235 37.7173 26.3592C30.9298 29.2046 25.3892 34.434 22.1428 41Z" fill="black"/>
<path fill-rule="evenodd" clip-rule="evenodd" d="M59.8295 32.8842L72 50L84.1705 32.8842C91.2717 22.8976 84.1901 9 72 9C59.8099 9 52.7283 22.8976 59.8295 32.8842ZM71.9999 30.2069C75.8733 30.2069 79.0132 27.042 79.0132 23.1379C79.0132 19.2338 75.8733 16.069 71.9999 16.069C68.1266 16.069 64.9866 19.2338 64.9866 23.1379C64.9866 27.042 68.1266 30.2069 71.9999 30.2069Z" fill="black"/>
</svg>
