<svg width="24" height="24" viewBox="0 0 24 24" fill="none" xmlns="http://www.w3.org/2000/svg">
<path d="M3 7C3 5.11438 3 4.17157 3.58579 3.58579C4.17157 3 5.11438 3 7 3H7.5H12H17C18.8856 3 19.8284 3 20.4142 3.58579C21 4.17157 21 5.11438 21 7V17C21 18.8856 21 19.8284 20.4142 20.4142C19.8284 21 18.8856 21 17 21H7C5.11438 21 4.17157 21 3.58579 20.4142C3 19.8284 3 18.8856 3 17V7Z" stroke="#CCD2E3" stroke-width="1.85"/>
<path d="M3 11V11C3 11.9319 3 12.3978 3.15224 12.7654C3.35523 13.2554 3.74458 13.6448 4.23463 13.8478C4.60218 14 5.06812 14 6 14H6.67544C7.25646 14 7.54696 14 7.77888 14.1338C7.83745 14.1675 7.89245 14.2072 7.94303 14.2521C8.14326 14.4298 8.23513 14.7054 8.41886 15.2566L8.54415 15.6325C8.76416 16.2925 8.87416 16.6225 9.13605 16.8112C9.39794 17 9.7458 17 10.4415 17H13.5585C14.2542 17 14.6021 17 14.864 16.8112C15.1258 16.6225 15.2358 16.2925 15.4558 15.6325L15.5811 15.2566C15.7649 14.7054 15.8567 14.4298 16.057 14.2521C16.1075 14.2072 16.1625 14.1675 16.2211 14.1338C16.453 14 16.7435 14 17.3246 14H18C18.9319 14 19.3978 14 19.7654 13.8478C20.2554 13.6448 20.6448 13.2554 20.8478 12.7654C21 12.3978 21 11.9319 21 11V11" stroke="#CCD2E3" stroke-width="1.85"/>
<path d="M3 6.5V6.5C3 7.32843 3.67157 8 4.5 8H6.67544C7.25646 8 7.54696 8 7.77888 8.13376C7.83745 8.16755 7.89245 8.20719 7.94303 8.25208C8.14326 8.42979 8.23513 8.70539 8.41886 9.25658L8.54415 9.63246C8.76416 10.2925 8.87416 10.6225 9.13605 10.8112C9.39794 11 9.7458 11 10.4415 11H13.5585C14.2542 11 14.6021 11 14.864 10.8112C15.1258 10.6225 15.2358 10.2925 15.4558 9.63246L15.5811 9.25658C15.7649 8.70539 15.8567 8.42979 16.057 8.25208C16.1075 8.20719 16.1625 8.16755 16.2211 8.13376C16.453 8 16.7435 8 17.3246 8H19.5C20.3284 8 21 7.32843 21 6.5V6.5" stroke="#CCD2E3" stroke-width="1.85"/>
</svg>
