<svg width="28" height="28" viewBox="0 0 28 28" fill="none" xmlns="http://www.w3.org/2000/svg">
<g clip-path="url(#clip0_2723_1177)">
<path d="M14 21C12.1435 21 10.363 20.2625 9.05025 18.9497C7.7375 17.637 7 15.8565 7 14C7 12.1435 7.7375 10.363 9.05025 9.05025C10.363 7.7375 12.1435 7 14 7C15.8565 7 17.637 7.7375 18.9497 9.05025C20.2625 10.363 21 12.1435 21 14C21 15.8565 20.2625 17.637 18.9497 18.9497C17.637 20.2625 15.8565 21 14 21ZM14 18.375C15.1603 18.375 16.2731 17.9141 17.0936 17.0936C17.9141 16.2731 18.375 15.1603 18.375 14C18.375 12.8397 17.9141 11.7269 17.0936 10.9064C16.2731 10.0859 15.1603 9.625 14 9.625C12.8397 9.625 11.7269 10.0859 10.9064 10.9064C10.0859 11.7269 9.625 12.8397 9.625 14C9.625 15.1603 10.0859 16.2731 10.9064 17.0936C11.7269 17.9141 12.8397 18.375 14 18.375ZM23.8997 4.10025C24.0217 4.22214 24.1185 4.36686 24.1845 4.52616C24.2505 4.68545 24.2845 4.85619 24.2845 5.02863C24.2845 5.20106 24.2505 5.3718 24.1845 5.53109C24.1185 5.69039 24.0217 5.83511 23.8997 5.957L22.043 7.812C21.8826 7.98477 21.6785 8.11107 21.4523 8.17759C21.2261 8.24412 20.9862 8.2484 20.7578 8.19C20.5294 8.1316 20.3209 8.01267 20.1544 7.84574C19.9879 7.67881 19.8696 7.47007 19.8118 7.2415C19.7535 7.01333 19.7576 6.77368 19.8238 6.54768C19.89 6.32168 20.0158 6.11766 20.188 5.957L22.043 4.102C22.2891 3.85621 22.6227 3.71816 22.9705 3.71816C23.3183 3.71816 23.6519 3.85621 23.898 4.102L23.8997 4.10025ZM7.812 20.188C8.05779 20.4341 8.19585 20.7677 8.19585 21.1155C8.19585 21.4633 8.05779 21.7969 7.812 22.043L5.957 23.8997C5.83598 24.0252 5.6912 24.1252 5.53111 24.1941C5.37101 24.2629 5.1988 24.2992 5.02453 24.3008C4.85026 24.3024 4.67741 24.2693 4.51608 24.2034C4.35475 24.1375 4.20816 24.0401 4.08487 23.9169C3.96158 23.7937 3.86405 23.6472 3.79798 23.486C3.73191 23.3247 3.69862 23.1519 3.70005 22.9776C3.70149 22.8033 3.73761 22.6311 3.80632 22.4709C3.87503 22.3108 3.97495 22.1659 4.10025 22.0448L5.95525 20.188C6.07714 20.066 6.22186 19.9693 6.38116 19.9033C6.54045 19.8373 6.71119 19.8033 6.88363 19.8033C7.05606 19.8033 7.2268 19.8373 7.38609 19.9033C7.54539 19.9693 7.69011 20.066 7.812 20.188ZM14 0C14.3481 0 14.6819 0.138281 14.9281 0.384422C15.1742 0.630564 15.3125 0.964403 15.3125 1.3125V3.9375C15.3125 4.2856 15.1742 4.61944 14.9281 4.86558C14.6819 5.11172 14.3481 5.25 14 5.25C13.6519 5.25 13.3181 5.11172 13.0719 4.86558C12.8258 4.61944 12.6875 4.2856 12.6875 3.9375V1.3125C12.6875 0.964403 12.8258 0.630564 13.0719 0.384422C13.3181 0.138281 13.6519 0 14 0ZM5.25 14C5.25 14.3481 5.11172 14.6819 4.86558 14.9281C4.61944 15.1742 4.2856 15.3125 3.9375 15.3125H1.3125C0.964403 15.3125 0.630564 15.1742 0.384422 14.9281C0.138281 14.6819 0 14.3481 0 14C0 13.6519 0.138281 13.3181 0.384422 13.0719C0.630564 12.8258 0.964403 12.6875 1.3125 12.6875H3.9375C4.2856 12.6875 4.61944 12.8258 4.86558 13.0719C5.11172 13.3181 5.25 13.6519 5.25 14ZM28 14C28 14.3481 27.8617 14.6819 27.6156 14.9281C27.3694 15.1742 27.0356 15.3125 26.6875 15.3125H24.0625C23.7144 15.3125 23.3806 15.1742 23.1344 14.9281C22.8883 14.6819 22.75 14.3481 22.75 14C22.75 13.6519 22.8883 13.3181 23.1344 13.0719C23.3806 12.8258 23.7144 12.6875 24.0625 12.6875H26.6875C27.0356 12.6875 27.3694 12.8258 27.6156 13.0719C27.8617 13.3181 28 13.6519 28 14ZM14 22.75C14.3481 22.75 14.6819 22.8883 14.9281 23.1344C15.1742 23.3806 15.3125 23.7144 15.3125 24.0625V26.6875C15.3125 27.0356 15.1742 27.3694 14.9281 27.6156C14.6819 27.8617 14.3481 28 14 28C13.6519 28 13.3181 27.8617 13.0719 27.6156C12.8258 27.3694 12.6875 27.0356 12.6875 26.6875V24.0625C12.6875 23.7144 12.8258 23.3806 13.0719 23.1344C13.3181 22.8883 13.6519 22.75 14 22.75ZM20.188 20.188C20.4341 19.9422 20.7677 19.8042 21.1155 19.8042C21.4633 19.8042 21.7969 19.9422 22.043 20.188L23.8997 22.043C24.139 22.2904 24.2714 22.6219 24.2686 22.966C24.2657 23.3102 24.1279 23.6394 23.8846 23.8829C23.6414 24.1264 23.3123 24.2646 22.9681 24.2677C22.624 24.2709 22.2924 24.1387 22.0448 23.8997L20.188 22.0448C20.066 21.9229 19.9693 21.7781 19.9033 21.6188C19.8373 21.4595 19.8033 21.2888 19.8033 21.1164C19.8033 20.9439 19.8373 20.7732 19.9033 20.6139C19.9693 20.4546 20.066 20.3099 20.188 20.188ZM4.10025 4.10025C4.22214 3.97828 4.36686 3.88153 4.52616 3.81552C4.68545 3.74951 4.85619 3.71553 5.02863 3.71553C5.20106 3.71553 5.3718 3.74951 5.53109 3.81552C5.69039 3.88153 5.83511 3.97828 5.957 4.10025L7.812 5.957C8.04412 6.20576 8.17058 6.53493 8.1647 6.87511C8.15883 7.2153 8.02108 7.53991 7.7805 7.7805C7.53991 8.02108 7.2153 8.15883 6.87511 8.1647C6.53493 8.17058 6.20576 8.04412 5.957 7.812L4.102 5.957C3.85621 5.71091 3.71816 5.37731 3.71816 5.0295C3.71816 4.68169 3.85621 4.34809 4.102 4.102L4.10025 4.10025Z" fill="#F8F8F8"/>
</g>
<defs>
<clipPath id="clip0_2723_1177">
<rect width="28" height="28" fill="white"/>
</clipPath>
</defs>
</svg>
