<svg width="28" height="28" viewBox="0 0 28 28" fill="none" xmlns="http://www.w3.org/2000/svg">
<path d="M10.5003 2.33398H17.5003M5.83367 8.16732L22.167 25.084M14.0003 11.6673V16.334M7.222 9.91732C5.57642 11.6574 4.66272 13.9635 4.66996 16.3585C4.67721 18.7534 5.60483 21.054 7.26091 22.7841C8.91698 24.5142 11.1748 25.5415 13.5671 25.6534C15.9595 25.7653 18.3033 24.9533 20.1137 23.3853M22.657 19.834C23.3373 18.1551 23.5143 16.3146 23.1665 14.5369C22.8187 12.7591 21.9611 11.121 20.6982 9.8223C19.4354 8.52361 17.822 7.62046 16.0547 7.22301C14.2874 6.82556 12.4426 6.95098 10.7453 7.58398" stroke="#F8F8F8" stroke-width="1.75" stroke-linecap="round" stroke-linejoin="round"/>
</svg>
