<svg width="79" height="123" viewBox="0 0 79 123" fill="none" xmlns="http://www.w3.org/2000/svg">
<path fill-rule="evenodd" clip-rule="evenodd" d="M59 11H20C15.0294 11 11 15.0294 11 20V82.7C11 87.6706 15.0294 91.7 20 91.7H59C63.9706 91.7 68 87.6706 68 82.7V20C68 15.0294 63.9706 11 59 11ZM20 0C8.95431 0 0 8.95432 0 20V82.7C0 90.6714 4.66353 97.5536 11.4111 100.767V103.233C11.4111 103.341 11.4128 103.449 11.4162 103.556C11.5863 108.929 15.9961 113.233 21.4111 113.233H23.7V117.389C23.7 120.426 26.1624 122.889 29.2 122.889C32.2376 122.889 34.7 120.426 34.7 117.389V113.233H44.7667V117.389C44.7667 120.426 47.2291 122.889 50.2667 122.889C53.3042 122.889 55.7667 120.426 55.7667 117.389V113.233H57.5889C63.0039 113.233 67.4137 108.929 67.5838 103.556C67.5872 103.449 67.5889 103.341 67.5889 103.233V100.767C74.3365 97.5536 79 90.6714 79 82.7V20C79 8.9543 70.0457 0 59 0H20ZM18.4282 103.556H60.5718C60.411 105.061 59.1369 106.233 57.5889 106.233H21.4111C19.8631 106.233 18.589 105.061 18.4282 103.556ZM49.1778 71.5389C49.1778 77.1262 44.6484 81.6556 39.0611 81.6556C33.4738 81.6556 28.9444 77.1262 28.9444 71.5389C28.9444 69.8761 29.3456 68.307 30.0564 66.9231L36.1474 73.014C37.5142 74.3809 39.7303 74.3809 41.0971 73.014C42.4639 71.6472 42.4639 69.4311 41.0971 68.0643L35.2127 62.1799C36.3991 61.6916 37.6986 61.4222 39.0611 61.4222C44.6484 61.4222 49.1778 65.9516 49.1778 71.5389ZM56.1778 71.5389C56.1778 80.9922 48.5144 88.6556 39.0611 88.6556C29.6078 88.6556 21.9444 80.9922 21.9444 71.5389C21.9444 62.0856 29.6078 54.4222 39.0611 54.4222C48.5144 54.4222 56.1778 62.0856 56.1778 71.5389ZM39.0611 22.6325L35.2863 27.9333C33.1016 31.0011 35.2949 35.2556 39.0611 35.2556C42.8274 35.2556 45.0206 31.0011 42.8359 27.9333L39.0611 22.6325ZM41.0817 15.1263C40.0926 13.7374 38.0296 13.7374 37.0406 15.1263L30.3989 24.4529C25.3856 31.4928 30.4186 41.2556 39.0611 41.2556C47.7037 41.2556 52.7366 31.4928 47.7233 24.4529L41.0817 15.1263Z" fill="black"/>
</svg>
