<svg width="512" height="512" viewBox="0 0 512 512" fill="none" xmlns="http://www.w3.org/2000/svg">
  <rect width="512" height="512" rx="96" fill="#0f172a"/>
  <!-- sPd mark — original 32x32, scaled 10x to 320x320, centred at (96,96) -->
  <g transform="translate(96, 96) scale(10)">
    <rect x="3" y="14.1855" width="4.62963" height="4.62963" rx="2.31481" fill="#5BD566"/>
    <path d="M0.995431 13.2733C0.593485 8.44995 4.66587 4.44432 9.48192 4.92593V4.92593L9.07177 5.54115C7.55932 7.80981 7.03858 10.5976 7.63006 13.2593V13.2593V13.2593C5.74472 12.1819 3.36135 12.5822 1.93144 14.2164L1.14858 15.1111L0.995431 13.2733Z" fill="#DFDFDF"/>
    <path d="M9.63543 19.7267C10.0374 24.5501 5.96499 28.5557 1.14894 28.0741V28.0741L1.55909 27.4589C3.07154 25.1902 3.59228 22.4024 3.0008 19.7407V19.7407V19.7407C4.88614 20.8181 7.26951 20.4178 8.69942 18.7836L9.48228 17.8889L9.63543 19.7267Z" fill="#DFDFDF"/>
    <circle cx="17.3742" cy="15.8166" r="2.68868" stroke="#DFDFDF" stroke-width="3"/>
    <path d="M13.1855 15.8164L14.4422 17.7612L15.6988 19.3169V24.1938C15.6988 25.5818 14.5736 26.707 13.1855 26.707V26.707V15.8164Z" fill="#DFDFDF"/>
    <circle cx="26.5887" cy="15.8162" r="2.68868" transform="rotate(-180 26.5887 15.8162)" stroke="#DFDFDF" stroke-width="3"/>
    <path d="M30.7773 15.8164L29.5207 13.8717L28.2641 12.3159V7.43904C28.2641 6.05104 29.3893 4.92584 30.7773 4.92584V4.92584V15.8164Z" fill="#DFDFDF"/>
  </g>
</svg>
