<svg width="25" height="25" viewBox="0 0 25 25" fill="none" xmlns="http://www.w3.org/2000/svg">
<path d="M18.7744 9.2319C17.4837 7.53534 15.5719 6.42101 13.4596 6.13404C11.3473 5.84707 9.20746 6.41097 7.5109 7.70169C5.81434 8.99241 4.70001 10.9042 4.41304 13.0165C4.12607 15.1289 4.68997 17.2687 5.98069 18.9652C7.27141 20.6618 9.18322 21.7761 11.2955 22.0631C12.3415 22.2052 13.4051 22.1399 14.4258 21.8709C15.4465 21.6019 16.4042 21.1345 17.2442 20.4954C18.0843 19.8563 18.7902 19.058 19.3218 18.1461C19.8533 17.2342 20.2 16.2265 20.3421 15.1806C20.4842 14.1347 20.4189 13.071 20.1499 12.0503C19.8809 11.0297 19.4135 10.072 18.7744 9.2319ZM18.7744 9.2319L20.663 7.34336M9.66819 2.86523H15.0849M12.3765 10.3809V14.0996" stroke="white" stroke-width="1.5625" stroke-linecap="round" stroke-linejoin="round"/>
</svg>
